<svg width="45.335938" height="46.000000" viewBox="0 0 45.3359 46" fill="none" xmlns="http://www.w3.org/2000/svg" xmlns:xlink="http://www.w3.org/1999/xlink">
	<desc>
			Created with Pixso.
	</desc>
	<defs/>
	<path id="Vector" d="M42.34 18.81C43.39 15.68 43.03 12.25 41.36 9.4C38.85 5.04 33.82 2.8 28.9 3.84C26.7 1.38 23.56 -0.02 20.26 0C15.23 0 10.77 3.24 9.21 8.02C5.98 8.69 3.19 10.71 1.55 13.58C-0.97 17.94 -0.39 23.42 2.99 27.16C1.94 30.29 2.3 33.72 3.97 36.56C6.47 40.93 11.51 43.18 16.45 42.13C18.62 44.59 21.77 46.01 25.07 45.99C30.09 45.99 34.56 42.75 36.12 37.97C39.35 37.3 42.14 35.28 43.76 32.41C46.3 28.05 45.72 22.57 42.34 18.83L42.34 18.81ZM38.76 10.91C39.76 12.66 40.13 14.7 39.79 16.68C39.73 16.63 39.6 16.57 39.53 16.52L30.37 11.23C29.91 10.96 29.33 10.96 28.87 11.23L18.14 17.43L18.14 12.88L27 7.75C31.12 5.37 36.38 6.79 38.76 10.91ZM18.14 20.37L22.66 17.75L27.17 20.37L27.17 25.59L22.66 28.21L18.14 25.59L18.14 20.37ZM20.25 3C22.27 3 24.21 3.7 25.77 5C25.71 5.03 25.58 5.1 25.49 5.15L16.34 10.43C15.87 10.7 15.59 11.2 15.59 11.74L15.59 24.14L11.66 21.87L11.66 11.62C11.66 6.85 15.5 3 20.26 2.99L20.25 3ZM4.17 15.09C5.18 13.34 6.75 12.01 8.65 11.3L8.65 22.19C8.65 22.74 8.93 23.22 9.4 23.5L20.1 29.69L16.15 31.98L7.31 26.87C3.21 24.48 1.79 19.22 4.17 15.09ZM6.58 35.08C5.57 33.35 5.21 31.29 5.55 29.31C5.62 29.36 5.74 29.42 5.82 29.47L14.97 34.76C15.44 35.03 16.01 35.03 16.48 34.76L27.19 28.56L27.19 33.11L18.33 38.22C14.21 40.59 8.95 39.19 6.57 35.08L6.58 35.08ZM25.08 42.99C23.08 42.99 21.12 42.29 19.57 40.99C19.64 40.96 19.78 40.89 19.85 40.84L29.01 35.56C29.47 35.29 29.77 34.79 29.75 34.25L29.75 21.87L33.69 24.14L33.69 34.37C33.69 39.14 29.83 43 25.08 43L25.08 42.99ZM41.17 30.9C40.16 32.65 38.58 33.98 36.69 34.67L36.69 23.78C36.69 23.24 36.41 22.74 35.94 22.47L25.23 16.27L29.16 14L38.01 19.11C42.14 21.49 43.54 26.76 41.16 30.88L41.17 30.9Z" fill="#FFFFFF" fill-opacity="1.000000" fill-rule="nonzero"/>
</svg>
